<svg width="173" height="64" viewBox="0 0 173 64" fill="none" xmlns="http://www.w3.org/2000/svg">
<path d="M0 50V3.45454H12.6364V39.8182H31.4545V50H0ZM53.5625 50.6364C49.7746 50.6364 46.5322 49.8864 43.8352 48.3864C41.1383 46.8712 39.0701 44.7652 37.6307 42.0682C36.1913 39.3561 35.4716 36.2121 35.4716 32.6364C35.4716 29.0606 36.1913 25.9242 37.6307 23.2273C39.0701 20.5152 41.1383 18.4091 43.8352 16.9091C46.5322 15.3939 49.7746 14.6364 53.5625 14.6364C57.3504 14.6364 60.5928 15.3939 63.2898 16.9091C65.9867 18.4091 68.0549 20.5152 69.4943 23.2273C70.9337 25.9242 71.6534 29.0606 71.6534 32.6364C71.6534 36.2121 70.9337 39.3561 69.4943 42.0682C68.0549 44.7652 65.9867 46.8712 63.2898 48.3864C60.5928 49.8864 57.3504 50.6364 53.5625 50.6364ZM53.6534 41.3636C54.714 41.3636 55.6307 41.0076 56.4034 40.2955C57.1761 39.5833 57.7746 38.5682 58.1989 37.25C58.6231 35.9318 58.8352 34.3636 58.8352 32.5455C58.8352 30.7121 58.6231 29.1439 58.1989 27.8409C57.7746 26.5227 57.1761 25.5076 56.4034 24.7955C55.6307 24.0833 54.714 23.7273 53.6534 23.7273C52.5322 23.7273 51.5701 24.0833 50.767 24.7955C49.964 25.5076 49.3504 26.5227 48.9261 27.8409C48.5019 29.1439 48.2898 30.7121 48.2898 32.5455C48.2898 34.3636 48.5019 35.9318 48.9261 37.25C49.3504 38.5682 49.964 39.5833 50.767 40.2955C51.5701 41.0076 52.5322 41.3636 53.6534 41.3636Z" fill="#DEC74E"/>
<path d="M93.5625 63.8182C90.0625 63.8182 87.0625 63.3182 84.5625 62.3182C82.0777 61.3333 80.1458 59.9697 78.767 58.2273C77.4034 56.5 76.6383 54.5152 76.4716 52.2727H88.5625C88.6837 53.0152 88.9867 53.6136 89.4716 54.0682C89.9564 54.5227 90.5777 54.8485 91.3352 55.0455C92.108 55.2576 92.9716 55.3636 93.9261 55.3636C95.5473 55.3636 96.8883 54.9697 97.9489 54.1818C99.0246 53.3939 99.5625 51.9697 99.5625 49.9091V44H99.1989C98.7443 45.1818 98.0473 46.1894 97.108 47.0227C96.1686 47.8409 95.0398 48.4697 93.7216 48.9091C92.4034 49.3333 90.9564 49.5455 89.3807 49.5455C86.8958 49.5455 84.608 48.9697 82.517 47.8182C80.4413 46.6667 78.7746 44.8409 77.517 42.3409C76.2746 39.8409 75.6534 36.5758 75.6534 32.5455C75.6534 28.3333 76.3049 24.9091 77.608 22.2727C78.9261 19.6364 80.6231 17.7045 82.6989 16.4773C84.7898 15.25 86.9867 14.6364 89.2898 14.6364C91.017 14.6364 92.5322 14.9394 93.8352 15.5455C95.1383 16.1364 96.2292 16.9318 97.108 17.9318C97.9867 18.9167 98.6534 20 99.108 21.1818H99.3807V15.0909H111.926V49.9091C111.926 52.8636 111.161 55.3712 109.631 57.4318C108.116 59.5076 105.979 61.0909 103.222 62.1818C100.464 63.2727 97.2443 63.8182 93.5625 63.8182ZM94.017 40.6364C95.1686 40.6364 96.1534 40.3182 96.9716 39.6818C97.8049 39.0303 98.4413 38.1061 98.8807 36.9091C99.3352 35.697 99.5625 34.2424 99.5625 32.5455C99.5625 30.8182 99.3352 29.3409 98.8807 28.1136C98.4413 26.8712 97.8049 25.9242 96.9716 25.2727C96.1534 24.6061 95.1686 24.2727 94.017 24.2727C92.8655 24.2727 91.8807 24.6061 91.0625 25.2727C90.2595 25.9242 89.6383 26.8712 89.1989 28.1136C88.7746 29.3409 88.5625 30.8182 88.5625 32.5455C88.5625 34.2727 88.7746 35.7424 89.1989 36.9545C89.6383 38.1515 90.2595 39.0682 91.0625 39.7045C91.8807 40.3258 92.8655 40.6364 94.017 40.6364Z" fill="url(#paint0_linear_302_117)"/>
<path d="M118.307 50V15.0909H130.852V50H118.307ZM124.58 11.4545C122.883 11.4545 121.428 10.8939 120.216 9.77273C119.004 8.65151 118.398 7.30303 118.398 5.72727C118.398 4.15151 119.004 2.80303 120.216 1.68182C121.428 0.560605 122.883 0 124.58 0C126.292 0 127.746 0.560605 128.943 1.68182C130.155 2.80303 130.761 4.15151 130.761 5.72727C130.761 7.30303 130.155 8.65151 128.943 9.77273C127.746 10.8939 126.292 11.4545 124.58 11.4545ZM149.79 30.3636V50H137.244V15.0909H149.153V21.7273H149.517C150.275 19.5152 151.608 17.7803 153.517 16.5227C155.441 15.2652 157.684 14.6364 160.244 14.6364C162.714 14.6364 164.858 15.2045 166.676 16.3409C168.509 17.4621 169.926 19.0076 170.926 20.9773C171.941 22.947 172.441 25.197 172.426 27.7273V50H159.881V30.3636C159.896 28.6364 159.456 27.2803 158.562 26.2955C157.684 25.3106 156.456 24.8182 154.881 24.8182C153.85 24.8182 152.949 25.0455 152.176 25.5C151.419 25.9394 150.835 26.5758 150.426 27.4091C150.017 28.2273 149.805 29.2121 149.79 30.3636Z" fill="#696BFE"/>
<defs>
<linearGradient id="paint0_linear_302_117" x1="159.5" y1="50" x2="56.5" y2="50" gradientUnits="userSpaceOnUse">
<stop offset="0.453125" stop-color="#696BFE"/>
<stop offset="0.572917" stop-color="#9A92B4"/>
<stop offset="0.739583" stop-color="#DEC74E"/>
</linearGradient>
</defs>
</svg>
