<svg width="237" height="64" viewBox="0 0 237 64" fill="none" xmlns="http://www.w3.org/2000/svg">
<path d="M26.5909 18C26.4697 16.4848 25.9015 15.303 24.8864 14.4545C23.8864 13.6061 22.3636 13.1818 20.3182 13.1818C19.0152 13.1818 17.947 13.3409 17.1136 13.6591C16.2955 13.9621 15.6894 14.3788 15.2955 14.9091C14.9015 15.4394 14.697 16.0455 14.6818 16.7273C14.6515 17.2879 14.75 17.7955 14.9773 18.25C15.2197 18.6894 15.5985 19.0909 16.1136 19.4545C16.6288 19.803 17.2879 20.1212 18.0909 20.4091C18.8939 20.697 19.8485 20.9545 20.9545 21.1818L24.7727 22C27.3485 22.5455 29.553 23.2652 31.3864 24.1591C33.2197 25.053 34.7197 26.1061 35.8864 27.3182C37.053 28.5152 37.9091 29.8636 38.4545 31.3636C39.0152 32.8636 39.303 34.5 39.3182 36.2727C39.303 39.3333 38.5379 41.9242 37.0227 44.0455C35.5076 46.1667 33.3409 47.7803 30.5227 48.8864C27.7197 49.9924 24.3485 50.5455 20.4091 50.5455C16.3636 50.5455 12.8333 49.947 9.81818 48.75C6.81818 47.553 4.48485 45.7121 2.81818 43.2273C1.16667 40.7273 0.333333 37.5303 0.318182 33.6364H12.3182C12.3939 35.0606 12.75 36.2576 13.3864 37.2273C14.0227 38.197 14.9167 38.9318 16.0682 39.4318C17.2348 39.9318 18.6212 40.1818 20.2273 40.1818C21.5758 40.1818 22.7045 40.0152 23.6136 39.6818C24.5227 39.3485 25.2121 38.8864 25.6818 38.2955C26.1515 37.7045 26.3939 37.0303 26.4091 36.2727C26.3939 35.5606 26.1591 34.9394 25.7045 34.4091C25.2652 33.8636 24.5379 33.3788 23.5227 32.9545C22.5076 32.5152 21.1364 32.1061 19.4091 31.7273L14.7727 30.7273C10.6515 29.8333 7.40152 28.3409 5.02273 26.25C2.65909 24.1439 1.48485 21.2727 1.5 17.6364C1.48485 14.6818 2.27273 12.0985 3.86364 9.88636C5.4697 7.65909 7.68939 5.92424 10.5227 4.68182C13.3712 3.43939 16.6364 2.81818 20.3182 2.81818C24.0758 2.81818 27.3258 3.44697 30.0682 4.70454C32.8106 5.96212 34.9242 7.73485 36.4091 10.0227C37.9091 12.2955 38.6667 14.9545 38.6818 18H26.5909ZM44.3068 50V15.0909H56.8523V50H44.3068ZM50.5795 11.4545C48.8826 11.4545 47.428 10.8939 46.2159 9.77273C45.0038 8.65151 44.3977 7.30303 44.3977 5.72727C44.3977 4.15151 45.0038 2.80303 46.2159 1.68182C47.428 0.560605 48.8826 0 50.5795 0C52.2917 0 53.7462 0.560605 54.9432 1.68182C56.1553 2.80303 56.7614 4.15151 56.7614 5.72727C56.7614 7.30303 56.1553 8.65151 54.9432 9.77273C53.7462 10.8939 52.2917 11.4545 50.5795 11.4545ZM80.0625 63.8182C76.5625 63.8182 73.5625 63.3182 71.0625 62.3182C68.5777 61.3333 66.6458 59.9697 65.267 58.2273C63.9034 56.5 63.1383 54.5152 62.9716 52.2727H75.0625C75.1837 53.0152 75.4867 53.6136 75.9716 54.0682C76.4564 54.5227 77.0777 54.8485 77.8352 55.0455C78.608 55.2576 79.4716 55.3636 80.4261 55.3636C82.0473 55.3636 83.3883 54.9697 84.4489 54.1818C85.5246 53.3939 86.0625 51.9697 86.0625 49.9091V44H85.6989C85.2443 45.1818 84.5473 46.1894 83.608 47.0227C82.6686 47.8409 81.5398 48.4697 80.2216 48.9091C78.9034 49.3333 77.4564 49.5455 75.8807 49.5455C73.3958 49.5455 71.108 48.9697 69.017 47.8182C66.9413 46.6667 65.2746 44.8409 64.017 42.3409C62.7746 39.8409 62.1534 36.5758 62.1534 32.5455C62.1534 28.3333 62.8049 24.9091 64.108 22.2727C65.4261 19.6364 67.1231 17.7045 69.1989 16.4773C71.2898 15.25 73.4867 14.6364 75.7898 14.6364C77.517 14.6364 79.0322 14.9394 80.3352 15.5455C81.6383 16.1364 82.7292 16.9318 83.608 17.9318C84.4867 18.9167 85.1534 20 85.608 21.1818H85.8807V15.0909H98.4261V49.9091C98.4261 52.8636 97.661 55.3712 96.1307 57.4318C94.6155 59.5076 92.4792 61.0909 89.7216 62.1818C86.964 63.2727 83.7443 63.8182 80.0625 63.8182ZM80.517 40.6364C81.6686 40.6364 82.6534 40.3182 83.4716 39.6818C84.3049 39.0303 84.9413 38.1061 85.3807 36.9091C85.8352 35.697 86.0625 34.2424 86.0625 32.5455C86.0625 30.8182 85.8352 29.3409 85.3807 28.1136C84.9413 26.8712 84.3049 25.9242 83.4716 25.2727C82.6534 24.6061 81.6686 24.2727 80.517 24.2727C79.3655 24.2727 78.3807 24.6061 77.5625 25.2727C76.7595 25.9242 76.1383 26.8712 75.6989 28.1136C75.2746 29.3409 75.0625 30.8182 75.0625 32.5455C75.0625 34.2727 75.2746 35.7424 75.6989 36.9545C76.1383 38.1515 76.7595 39.0682 77.5625 39.7045C78.3807 40.3258 79.3655 40.6364 80.517 40.6364ZM117.352 30.3636V50H104.807V15.0909H116.716V21.7273H117.08C117.837 19.5152 119.17 17.7803 121.08 16.5227C123.004 15.2652 125.246 14.6364 127.807 14.6364C130.277 14.6364 132.42 15.2045 134.239 16.3409C136.072 17.4621 137.489 19.0076 138.489 20.9773C139.504 22.947 140.004 25.197 139.989 27.7273V50H127.443V30.3636C127.458 28.6364 127.019 27.2803 126.125 26.2955C125.246 25.3106 124.019 24.8182 122.443 24.8182C121.413 24.8182 120.511 25.0455 119.739 25.5C118.981 25.9394 118.398 26.5758 117.989 27.4091C117.58 28.2273 117.367 29.2121 117.352 30.3636Z" fill="#DEC74E"/>
<path d="M181.568 34.7273V15.0909H194.114V50H182.205V43.3636H181.841C181.083 45.5909 179.758 47.3333 177.864 48.5909C175.97 49.8333 173.72 50.4545 171.114 50.4545C168.674 50.4545 166.538 49.8939 164.705 48.7727C162.886 47.6515 161.47 46.1061 160.455 44.1364C159.455 42.1667 158.947 39.9091 158.932 37.3636V15.0909H171.477V34.7273C171.492 36.4545 171.932 37.8106 172.795 38.7955C173.674 39.7803 174.902 40.2727 176.477 40.2727C177.523 40.2727 178.424 40.053 179.182 39.6136C179.955 39.1591 180.545 38.5227 180.955 37.7045C181.379 36.8712 181.583 35.8788 181.568 34.7273ZM200.494 63.0909V15.0909H212.949V21.1818H213.222C213.676 20 214.343 18.9167 215.222 17.9318C216.1 16.9318 217.191 16.1364 218.494 15.5455C219.797 14.9394 221.313 14.6364 223.04 14.6364C225.343 14.6364 227.532 15.25 229.608 16.4773C231.699 17.7045 233.396 19.6364 234.699 22.2727C236.017 24.9091 236.676 28.3333 236.676 32.5455C236.676 36.5758 236.047 39.9167 234.79 42.5682C233.547 45.2197 231.881 47.197 229.79 48.5C227.714 49.803 225.434 50.4545 222.949 50.4545C221.312 50.4545 219.85 50.1894 218.562 49.6591C217.29 49.1136 216.199 48.3788 215.29 47.4545C214.396 46.5152 213.706 45.4545 213.222 44.2727H213.04V63.0909H200.494ZM212.767 32.5455C212.767 34.2424 212.987 35.7121 213.426 36.9545C213.881 38.1818 214.517 39.1364 215.335 39.8182C216.169 40.4848 217.161 40.8182 218.312 40.8182C219.464 40.8182 220.441 40.4924 221.244 39.8409C222.063 39.1742 222.684 38.2273 223.108 37C223.547 35.7576 223.767 34.2727 223.767 32.5455C223.767 30.8182 223.547 29.3409 223.108 28.1136C222.684 26.8712 222.063 25.9242 221.244 25.2727C220.441 24.6061 219.464 24.2727 218.312 24.2727C217.161 24.2727 216.169 24.6061 215.335 25.2727C214.517 25.9242 213.881 26.8712 213.426 28.1136C212.987 29.3409 212.767 30.8182 212.767 32.5455Z" fill="#696BFE"/>
</svg>
